<svg width="14" height="10" viewBox="0 0 14 10" fill="none" xmlns="http://www.w3.org/2000/svg">
<path d="M0 3V7H3L6 10H7V0H6L3 3H0Z" fill="black"/>
<path d="M12.25 0L11.4688 0.625C12.4339 1.8248 13 3.3403 13 5C13 6.6597 12.4339 8.1752 11.4688 9.375L12.25 10C13.3483 8.6303 14 6.8922 14 5C14 3.1078 13.3483 1.3697 12.25 0ZM10.6875 1.25L9.875 1.90625C10.5629 2.76275 11 3.8159 11 5C11 6.1841 10.5629 7.23715 9.875 8.09375L10.6875 8.75C11.5106 7.7229 12 6.4186 12 5C12 3.5814 11.5106 2.2771 10.6875 1.25ZM9.125 2.5L8.34375 3.125C8.75502 3.6385 9 4.2909 9 5C9 5.7091 8.75502 6.3615 8.34375 6.875L9.125 7.5C9.67032 6.8164 10 5.9424 10 5C10 4.0576 9.67032 3.1836 9.125 2.5Z" fill="black"/>
</svg>
